<svg width="32" height="32" viewBox="0 0 32 32" fill="none" xmlns="http://www.w3.org/2000/svg">
<rect x="0.5" y="0.5" width="31" height="31" rx="6.5" fill="white" stroke="#F8F8F8"/>
<path d="M21.2883 11.2125L21.2879 11.2121C20.9306 10.8646 20.5092 10.5883 20.0464 10.3983L20.0458 10.398C19.5657 10.2002 19.0507 10.0988 18.5306 10.1L18.5295 10.1C17.7984 10.1 17.0862 10.2986 16.4681 10.6728L16.4681 10.6728C16.3202 10.7623 16.1801 10.8604 16.0476 10.967L15.7341 11.2193L15.4207 10.967C15.2882 10.8604 15.1481 10.7623 15.0002 10.6728L15.0002 10.6728C14.3821 10.2986 13.6699 10.1 12.9388 10.1C12.4115 10.1 11.9029 10.2 11.4225 10.398L11.422 10.3983C10.9574 10.5891 10.5395 10.8631 10.1803 11.2122L10.1796 11.2129C9.8232 11.5579 9.53872 11.9688 9.34208 12.4221L21.2883 11.2125ZM21.2883 11.2125C21.6443 11.558 21.9289 11.9689 22.1262 12.4221C22.3308 12.8937 22.4348 13.3929 22.4333 13.907V13.9084C22.4333 14.3902 22.3342 14.9032 22.1284 15.4371L22.128 15.4382M21.2883 11.2125L22.128 15.4382M12.2448 19.2606L12.2448 19.2607C13.0009 19.9534 13.7552 20.5408 14.3295 20.9603C14.6163 21.1697 14.8571 21.3366 15.0295 21.4531C15.1157 21.5113 15.1847 21.5569 15.2335 21.5887C15.258 21.6047 15.2773 21.6171 15.291 21.6259C15.306 21.6355 15.312 21.6392 15.3113 21.6388L15.3192 21.6436L15.3192 21.6437L15.7133 21.8945C15.7133 21.8945 15.7134 21.8946 15.7135 21.8946C15.7188 21.8979 15.7255 21.9 15.7333 21.9C15.7411 21.9 15.7478 21.8979 15.7531 21.8946C15.7532 21.8946 15.7533 21.8945 15.7534 21.8945L16.1475 21.6437L16.1476 21.6436C16.2027 21.6085 17.7048 20.6492 19.2219 19.2606H12.2448ZM12.2448 19.2606C11.332 18.4245 10.6088 17.6103 10.0895 16.8422L12.2448 19.2606ZM22.128 15.4382C21.9575 15.8838 21.7054 16.356 21.3773 16.842M22.128 15.4382L21.3773 16.842M9.33815 15.4369C9.51083 15.8842 9.76194 16.357 10.0895 16.8422L9.33815 15.4369ZM9.33815 15.4369C9.13242 14.903 9.03333 14.3901 9.03333 13.9084C9.03333 13.3933 9.13751 12.8938 9.34206 12.4221L9.33815 15.4369ZM21.3773 16.842C20.858 17.6101 20.1348 18.4243 19.222 19.2605L21.3773 16.842Z" stroke="#ECECEC"/>
</svg>
